<?xml version="1.0" encoding="UTF-8"?><svg id="Layer_2" xmlns="http://www.w3.org/2000/svg" viewBox="0 0 503.75 503.75"><defs><style>.cls-1{fill:#0d0d0d;}</style></defs><g id="Logo"><g><polygon class="cls-1" points="154.73 256.57 239.89 342.1 334.69 342.1 334.69 286.69 209.45 161.46 154.73 161.46 154.73 256.57"/><path class="cls-1" d="M248.05,.03C113.31,2.03,4.21,109.85,.12,244.07c-4.41,144.66,114.91,263.97,259.57,259.56,134.22-4.09,242.03-113.19,244.03-247.94C505.83,114.09,389.66-2.08,248.05,.03ZM95.19,275.98H19c-1.95,0-3.59-1.48-3.75-3.42-.59-6.89-.9-13.81-.9-20.68,0-54.01,18.51-106.58,52.19-148.58,.72-.89,1.8-1.41,2.95-1.41H208.81c1,0,1.96,.4,2.66,1.1l188.91,188.91c.71,.71,1.1,1.66,1.1,2.66v139.97c0,1.15-.52,2.24-1.41,2.95-41.92,33.5-94.36,51.9-148.19,51.9-7.08,0-14.18-.31-21.24-.94-1.93-.17-3.41-1.81-3.41-3.75v-76.69c0-1-.4-1.96-1.1-2.66L97.86,277.08c-.71-.71-1.66-1.1-2.66-1.1ZM265.62,14.76c120.05,6.88,216.49,103.33,223.37,223.37,.2,3.46-3.98,5.33-6.43,2.88L262.74,21.19c-2.45-2.45-.57-6.63,2.88-6.43Z"/></g></g></svg>